<?xml version="1.0" encoding="UTF-8" standalone="no"?>
<!DOCTYPE svg PUBLIC "-//W3C//DTD SVG 1.1//EN" "http://www.w3.org/Graphics/SVG/1.1/DTD/svg11.dtd">
<svg width="100%" height="100%" viewBox="0 0 901 901" version="1.1" xmlns="http://www.w3.org/2000/svg" xmlns:xlink="http://www.w3.org/1999/xlink" xml:space="preserve" xmlns:serif="http://www.serif.com/" style="fill-rule:evenodd;clip-rule:evenodd;stroke-linecap:round;stroke-linejoin:round;stroke-miterlimit:1.41421;">
    <g transform="matrix(1,0,0,1,-250,-13)">
        <g id="GopherWithWrenchFrontal" transform="matrix(0.703009,0,0,1.12494,249.091,11.5473)">
            <rect x="0" y="0" width="1280" height="800" style="fill:none;"/>
            <g>
                <g id="Hand---left" serif:id="Hand - left" transform="matrix(1.55434,-0.378019,0.711756,1.14294,-178.76,-56.8741)">
                    <path d="M111.411,460.723C143.263,462.537 169.246,469.215 169.246,479.675C169.246,490.135 140.988,488.143 111.411,498.627C82.764,508.781 53.575,490.135 53.575,479.675C53.575,469.215 67.331,458.213 111.411,460.723Z" style="fill:rgb(253,195,134);stroke:black;stroke-width:3.91px;"/>
                </g>
                <g id="Hand---right" serif:id="Hand - right" transform="matrix(0.854035,0.849954,-1.69175,0.663862,1633.43,67.6567)">
                    <path d="M111.41,460.723C111.411,460.723 111.411,460.723 111.411,460.723C143.225,454.108 169.246,469.215 169.246,479.675C169.246,490.135 143.331,498.627 111.411,498.627C79.49,498.627 53.575,490.135 53.575,479.675C53.575,469.215 80.358,467.18 111.41,460.723Z" style="fill:rgb(253,195,134);stroke:black;stroke-width:3.92px;"/>
                </g>
                <g id="Body" transform="matrix(1.42246,0,0,0.888933,7.00149,41.6003)">
                    <path d="M230.577,283.401C229.921,277.046 229.436,270.643 229.124,264.202C223.503,148.426 298.614,28.242 484.355,52.542C672.788,77.195 724.647,187.287 695.185,308.459C692.537,319.348 689.401,330.027 685.797,340.444C675.949,375.568 659.662,417.036 635.483,466.035C537.41,664.781 618.434,755.857 408.116,750.385C230.682,745.769 291.379,583.985 252.372,421.303C252.372,421.303 252.372,421.303 252.372,421.303C239.14,366.119 232.292,320.696 230.577,283.401Z" style="fill:rgb(85,215,229);stroke:black;stroke-width:4.89px;"/>
                </g>
                <g id="Ear---right" serif:id="Ear - right" transform="matrix(1.08894,0.60559,-1.07639,1.16823,170.971,-474.428)">
                    <g transform="matrix(1.66963,0.372606,-0.74862,0.809315,-77.967,-176.76)">
                        <ellipse cx="607.827" cy="99.999" rx="32.173" ry="44.137" style="fill:rgb(85,215,229);stroke:black;stroke-width:3.23px;"/>
                    </g>
                    <g transform="matrix(2.59938,0.710836,-0.880343,0.776675,989.732,-171.702)">
                        <ellipse cx="61.775" cy="328.279" rx="5.608" ry="21.9"/>
                    </g>
                    <g transform="matrix(1.29002,0.422531,-0.698773,0.833172,855.135,-44.3653)">
                        <rect x="52.601" y="172.098" width="80.209" height="37.351" style="fill:rgb(85,215,229);"/>
                    </g>
                </g>
                <g id="Ear---left" serif:id="Ear - left" transform="matrix(1.5607,-0.561677,0.601664,1.26058,-364.723,260.613)">
                    <g transform="matrix(1.71754,-0.313672,0.590842,0.911826,-131.157,139.352)">
                        <ellipse cx="307.313" cy="77.558" rx="27.12" ry="42.944" style="fill:rgb(85,215,229);stroke:black;stroke-width:2.48px;"/>
                    </g>
                    <g transform="matrix(2.72042,-0.653371,0.748653,0.878549,28.6709,-134.372)">
                        <ellipse cx="61.775" cy="328.279" rx="5.608" ry="21.9"/>
                    </g>
                    <g transform="matrix(1.15713,-0.4194,0.713659,0.768959,226.296,33.9078)">
                        <rect x="52.601" y="172.098" width="80.209" height="37.351" style="fill:rgb(85,215,229);"/>
                    </g>
                </g>
                <g id="Nose-and-teeth" serif:id="Nose and teeth" transform="matrix(2.03092,0.130319,-0.185165,1.12695,-254.592,-180.357)">
                    <g transform="matrix(0.999726,0.0234107,-0.0234107,0.999726,35.5283,-23.8892)">
                        <path d="M472.608,463.531C472.608,459.115 469.425,455.531 465.504,455.531L458.477,455.531C454.556,455.531 451.373,459.115 451.373,463.531L451.373,499.66C451.373,504.076 454.556,507.66 458.477,507.66L465.504,507.66C469.425,507.66 472.608,504.076 472.608,499.66L472.608,463.531Z" style="fill:rgb(240,238,232);stroke:black;stroke-width:3.69px;"/>
                    </g>
                    <g transform="matrix(0.999726,0.0234107,-0.0234107,0.999726,13.3256,-24.1393)">
                        <path d="M472.608,465.078C472.608,459.809 468.809,455.531 464.13,455.531L459.851,455.531C455.172,455.531 451.373,459.809 451.373,465.078L451.373,498.113C451.373,503.382 455.172,507.66 459.851,507.66L464.13,507.66C468.809,507.66 472.608,503.382 472.608,498.113L472.608,465.078Z" style="fill:rgb(240,238,232);stroke:black;stroke-width:3.69px;"/>
                    </g>
                    <ellipse cx="475.5" cy="425.295" rx="45.801" ry="25.295" style="fill:rgb(253,195,134);"/>
                    <path d="M475.5,398.234C491.029,398.234 504.794,402.463 513.331,408.892C519.402,413.465 522.869,419.195 522.869,425.295C522.869,431.394 519.402,437.124 513.331,441.697C504.794,448.127 491.029,452.355 475.5,452.355C459.971,452.355 446.206,448.127 437.67,441.697C431.598,437.124 428.132,431.394 428.132,425.295C428.132,419.195 431.598,413.465 437.67,408.892C446.206,402.463 459.971,398.234 475.5,398.234ZM475.5,401.766C460.695,401.766 447.551,405.698 439.413,411.828C434.367,415.628 431.267,420.225 431.267,425.295C431.267,430.364 434.367,434.961 439.413,438.762C447.551,444.892 460.695,448.824 475.5,448.824C490.305,448.824 503.45,444.892 511.588,438.762C516.633,434.961 519.733,430.364 519.733,425.295C519.733,420.225 516.633,415.628 511.588,411.828C503.45,405.698 490.305,401.766 475.5,401.766Z"/>
                    <g transform="matrix(1.32457,-9.15292e-17,8.26245e-18,1.2708,-151.99,-130.693)">
                        <ellipse cx="474.659" cy="427.041" rx="19.357" ry="9.658"/>
                    </g>
                </g>
                <g id="Foot---right" serif:id="Foot - right" transform="matrix(1.51802,0.366204,-0.641831,1.03905,884.766,162.111)">
                    <path d="M111.411,460.723C143.331,460.723 171.171,469.351 169.246,479.675C167.705,487.939 161.708,490.713 145.7,495.873C125.831,502.277 123.998,500.303 111.411,498.627C111.411,498.627 111.411,498.627 111.41,498.627C79.855,494.426 53.575,490.135 53.575,479.675C53.575,469.215 79.49,460.723 111.411,460.723Z" style="fill:rgb(253,195,134);stroke:black;stroke-width:4.17px;"/>
                </g>
                <g id="Foot---left" serif:id="Foot - left" transform="matrix(1.63664,-0.220333,0.372666,1.08106,104.955,201.689)">
                    <path d="M111.411,460.723C143.331,460.723 169.246,469.215 169.246,479.675C169.246,490.135 142.927,503.05 111.411,498.627C71.406,493.013 58.086,490.429 53.575,479.675C45.292,459.931 79.49,460.723 111.411,460.723Z" style="fill:rgb(253,195,134);stroke:black;stroke-width:4.13px;"/>
                </g>
                <g id="Wrench" transform="matrix(1.42246,0,0,0.888933,0,0)">
                    <path d="M196.692,436.215L183.355,443.271C183.355,443.271 132.596,426.965 126.064,425.629L99.882,378.704C88.94,358.025 87.739,337.274 108.418,326.332L122.91,317.181L152.919,372.135L206.827,381.752L219.563,333.735L188.864,279.981L203.696,271.211C224.375,260.27 243.018,272.878 253.96,293.556L281.746,343.253C281.715,349.212 266.028,395.548 264.104,400.545L253.051,406.393L393.195,671.251L336.836,701.073L196.692,436.215Z" style="fill:rgb(204,203,201);stroke:black;stroke-width:5px;"/>
                </g>
                <g id="Eye---left" serif:id="Eye - left" transform="matrix(0.888872,0,0,0.910972,65.1136,6.93881)">
                    <g transform="matrix(1.42246,0,0,0.888933,-19.3278,-0.14381)">
                        <circle cx="388.491" cy="280.884" r="89.788" style="fill:rgb(235,235,235);"/>
                        <path d="M388.491,188.352C439.579,188.352 481.091,229.796 481.091,280.884C481.091,331.972 439.579,373.416 388.491,373.416C337.403,373.416 295.89,331.972 295.89,280.884C295.89,229.796 337.403,188.352 388.491,188.352ZM388.491,193.841C340.469,193.841 301.515,232.862 301.515,280.884C301.515,328.906 340.469,367.928 388.491,367.928C436.513,367.928 475.466,328.906 475.466,280.884C475.466,232.862 436.513,193.841 388.491,193.841Z"/>
                    </g>
                    <g transform="matrix(1,0,0,1,-54.41,-10.7339)">
                        <g transform="matrix(2.23605,0,0,1.39737,-1309.73,-239.879)">
                            <circle cx="840.533" cy="355.942" r="14.73"/>
                        </g>
                        <g transform="matrix(0.306479,0,0,0.194831,323.289,193.062)">
                            <circle cx="779.461" cy="293.806" r="33.404" style="fill:rgb(248,248,248);"/>
                        </g>
                    </g>
                </g>
                <g id="Eye---right" serif:id="Eye - right" transform="matrix(0.888872,0,0,0.910972,132.35,27.9486)">
                    <g transform="matrix(1.42246,0,0,0.888933,203.428,14.3807)">
                        <circle cx="388.491" cy="280.884" r="89.788" style="fill:rgb(235,235,235);"/>
                        <path d="M388.491,188.352C439.579,188.352 481.091,229.796 481.091,280.884C481.091,331.972 439.579,373.416 388.491,373.416C337.403,373.416 295.89,331.972 295.89,280.884C295.89,229.796 337.403,188.352 388.491,188.352ZM388.491,193.841C340.469,193.841 301.515,232.862 301.515,280.884C301.515,328.906 340.469,367.928 388.491,367.928C436.513,367.928 475.466,328.906 475.466,280.884C475.466,232.862 436.513,193.841 388.491,193.841Z"/>
                    </g>
                    <g transform="matrix(1.07288,0,0,1.07111,181.29,-6.73371)">
                        <g transform="matrix(2.23605,0,0,1.39737,-1309.73,-239.879)">
                            <circle cx="840.533" cy="355.942" r="14.73"/>
                        </g>
                        <g transform="matrix(0.306479,0,0,0.194831,323.289,193.062)">
                            <circle cx="779.461" cy="293.806" r="33.404" style="fill:rgb(248,248,248);"/>
                        </g>
                    </g>
                </g>
            </g>
        </g>
    </g>
</svg>
